<svg width="45" height="47" viewBox="0 0 45 47" fill="none" xmlns="http://www.w3.org/2000/svg">
<g clip-path="url(#clip0_2593_1526)">
<path d="M41.5393 4.05903C40.3964 2.97476 39.1143 2.16888 37.693 1.6414C36.2718 1.11392 34.7699 0.908787 33.1875 1.026C31.7515 1.05531 30.4035 1.36301 29.1434 1.9491C27.854 2.53519 26.7331 3.31176 25.7807 4.27882C24.8283 5.24587 24.0591 6.35944 23.473 7.61954C22.8869 8.90894 22.5645 10.2716 22.5059 11.7075C22.4473 13.1142 22.6598 14.4915 23.1433 15.8395C23.6268 17.1875 24.3082 18.389 25.1873 19.4439C26.1544 20.5282 26.887 21.781 27.3852 23.2023C27.8833 24.6235 28.1324 26.1107 28.1324 27.6639V28.3672H39.2535V27.6639C39.2535 26.1401 39.5246 24.6675 40.0667 23.2462C40.6089 21.8249 41.3634 20.5282 42.3305 19.356C43.151 18.3304 43.7811 17.2095 44.2206 15.9933C44.6602 14.7772 44.88 13.4951 44.88 12.1471C44.88 10.5647 44.587 9.08477 44.0009 7.70745C43.4148 6.33014 42.5942 5.114 41.5393 4.05903ZM41.3195 18.4329C40.2938 19.693 39.5026 21.041 38.9458 22.477C38.389 23.9129 38.052 25.4221 37.9348 27.0045H29.3632C29.3046 25.4221 28.9969 23.9202 28.4401 22.499C27.8833 21.0777 27.1068 19.7956 26.1104 18.6527C25.2606 17.715 24.6378 16.66 24.2422 15.4878C23.8466 14.3156 23.6781 13.0849 23.7367 11.7954C23.7953 10.5647 24.0737 9.3998 24.5719 8.30087C25.0701 7.20195 25.7734 6.19827 26.6818 5.28983C27.561 4.38138 28.5573 3.67807 29.6709 3.17989C30.7845 2.68172 31.9567 2.40332 33.1875 2.34471C34.5941 2.22749 35.9274 2.396 37.1875 2.85022C38.4476 3.30444 39.5612 4.00042 40.5283 4.93817C41.5246 5.90522 42.2792 6.99682 42.792 8.21296C43.3049 9.4291 43.5613 10.7405 43.5613 12.1471C43.6199 13.2607 43.4367 14.3669 43.0118 15.4658C42.5869 16.5648 42.0228 17.5538 41.3195 18.4329ZM28.1324 29.0266H39.3854V30.3892H28.1324V29.0266ZM29.4951 31.1804H37.9348V32.4991H29.4951V31.1804ZM30.9457 33.2904V34.653H31.7369C31.7369 35.0926 31.8614 35.4955 32.1105 35.8619C32.3596 36.2282 32.6893 36.4699 33.0995 36.5871V42.6532C33.0995 43.1514 32.9237 43.5763 32.5721 43.9279C32.2204 44.2796 31.7955 44.4554 31.2973 44.4554C30.7698 44.4554 30.3376 44.2796 30.0006 43.9279C29.6636 43.5763 29.4951 43.1514 29.4951 42.6532V39.84C29.4951 39.3711 29.3266 38.9681 28.9896 38.6311C28.6526 38.2941 28.2496 38.1256 27.7808 38.1256C27.3412 38.1256 26.9529 38.2941 26.6159 38.6311C26.2789 38.9681 26.1104 39.3711 26.1104 39.84C26.1104 39.9572 26.0664 40.0378 25.9785 40.0817C25.8906 40.1257 25.8174 40.1477 25.7587 40.1477H23.9565V41.5103H25.7587C26.2276 41.5103 26.6306 41.3418 26.9676 41.0048C27.3046 40.6678 27.4731 40.2795 27.4731 39.84C27.4731 39.7227 27.5097 39.6348 27.583 39.5762C27.6562 39.5176 27.7222 39.4883 27.7808 39.4883C27.8394 39.4883 27.9126 39.5323 28.0005 39.6202C28.0885 39.7081 28.1324 39.7813 28.1324 39.84V42.6532C28.1324 43.503 28.4328 44.2356 29.0335 44.851C29.6343 45.4664 30.3889 45.7741 31.2973 45.7741C32.1178 45.7741 32.8431 45.4738 33.4732 44.873C34.1032 44.2723 34.4183 43.5323 34.4183 42.6532V36.5871C34.8285 36.4699 35.1582 36.2282 35.4073 35.8619C35.6564 35.4955 35.7809 35.0926 35.7809 34.653H36.5721V33.2904H30.9457ZM34.4183 34.653C34.4183 34.8875 34.345 35.078 34.1985 35.2245C34.0519 35.371 33.8615 35.4443 33.627 35.4443C33.4219 35.4443 33.2461 35.371 33.0995 35.2245C32.953 35.078 32.8798 34.8875 32.8798 34.653H34.4183ZM36.5721 12.8065L33.7589 14.1691L30.9457 12.8065L27.7808 14.301L28.3522 15.5318L29.0116 15.1801L30.2863 20.5868V26.2133H31.5171V20.455L30.2863 14.6087L30.9457 14.301L33.7589 15.6197L36.5721 14.301L37.2315 14.6087L35.9128 20.455V26.2133H37.2315V20.5868L38.3744 15.1801L39.0337 15.5318L39.6052 14.301L36.5721 12.8065ZM17.5388 29.6859C17.5388 29.598 17.5388 29.4734 17.5388 29.3123C17.5388 29.1511 17.5388 29.0119 17.5388 28.8947L18.33 28.8068L18.0223 27.4441L17.2311 27.576C17.1725 27.2829 17.0919 27.0192 16.9893 26.7848C16.8868 26.5503 16.7769 26.3159 16.6597 26.0814L17.319 25.7737L16.6597 24.6309L16.0003 24.9825C15.8245 24.7481 15.6487 24.521 15.4728 24.3012C15.297 24.0814 15.1212 23.8982 14.9453 23.7517L15.4289 23.1803L14.5058 22.2572L14.0662 22.8286C13.8318 22.6528 13.6047 22.5063 13.3849 22.3891C13.1651 22.2718 12.938 22.1546 12.7035 22.0374L12.9233 21.3781L11.6925 20.9385L11.4728 21.5978C11.209 21.5392 10.9306 21.4806 10.6376 21.422C10.3445 21.3634 10.0661 21.3048 9.80239 21.2462V20.455H8.43973V21.2462C8.14668 21.2462 7.88294 21.2755 7.6485 21.3341C7.41406 21.3927 7.15032 21.4367 6.85728 21.466L6.63749 20.8066L5.4067 21.2462L5.62648 22.0374C5.39205 22.1546 5.16494 22.2718 4.94515 22.3891C4.72537 22.5063 4.49826 22.6528 4.26382 22.8286L3.69238 22.2572L2.68137 23.1803L3.1649 23.7517C2.98907 23.8982 2.82057 24.0814 2.65939 24.3012C2.49822 24.521 2.35902 24.7481 2.2418 24.9825L1.58245 24.5429L0.879138 25.6419L1.58245 25.9935C1.46523 26.228 1.35534 26.4697 1.25277 26.7188C1.15021 26.9679 1.06962 27.2097 1.01101 27.4441L0.219785 27.3562L0 28.8068L0.791224 28.8947C0.791224 29.0119 0.791224 29.1511 0.791224 29.3123C0.791224 29.4734 0.791224 29.598 0.791224 29.6859C0.791224 29.8031 0.791224 29.935 0.791224 30.0815C0.791224 30.228 0.791224 30.3599 0.791224 30.4771L0 30.609L0.219785 31.9717L1.01101 31.8398C1.06962 32.1328 1.15021 32.3966 1.25277 32.631C1.35534 32.8655 1.46523 33.0852 1.58245 33.2904L0.879138 33.642L1.58245 34.7849L2.2418 34.4333C2.41763 34.6677 2.58613 34.8875 2.74731 35.0926C2.90848 35.2977 3.07698 35.4882 3.25281 35.664L2.81324 36.2355L3.82425 37.1146L4.26382 36.5871C4.49826 36.7337 4.72537 36.8729 4.94515 37.0047C5.16494 37.1366 5.39205 37.2465 5.62648 37.3344L5.4067 38.0377L6.63749 38.4773L6.85728 37.8179C7.09171 37.8765 7.3408 37.9278 7.60454 37.9718C7.86829 38.0157 8.14668 38.0377 8.43973 38.0377V38.8289H9.80239V38.0377C10.0661 38.0377 10.3445 38.0084 10.6376 37.9498C10.9306 37.8912 11.209 37.8033 11.4728 37.6861L11.6925 38.3454L12.9233 37.9058L12.7035 37.2465C12.938 37.1293 13.1651 37.0121 13.3849 36.8948C13.6047 36.7776 13.8318 36.6311 14.0662 36.4553L14.5058 37.0267L15.5168 36.1036L15.0772 35.5322C15.253 35.3857 15.4215 35.2025 15.5827 34.9827C15.7439 34.7629 15.9124 34.5358 16.0882 34.3014L16.7476 34.653L17.4509 33.5102L16.7476 33.2025C16.8648 32.968 16.9747 32.7189 17.0773 32.4552C17.1798 32.1915 17.2604 31.9424 17.319 31.7079L18.1102 31.8398L18.33 30.4771L17.5388 30.3892C17.5388 30.3306 17.5388 30.228 17.5388 30.0815C17.5388 29.935 17.5388 29.8031 17.5388 29.6859ZM9.09908 36.8069C7.13567 36.8069 5.46531 36.1183 4.08799 34.741C2.71068 33.3636 2.02202 31.6786 2.02202 29.6859C2.02202 27.7225 2.71068 26.0521 4.08799 24.6748C5.46531 23.2975 7.13567 22.6088 9.09908 22.6088C11.0918 22.6088 12.7768 23.2975 14.1541 24.6748C15.5314 26.0521 16.2201 27.7225 16.2201 29.6859C16.2201 31.6786 15.5314 33.3636 14.1541 34.741C12.7768 36.1183 11.0918 36.8069 9.09908 36.8069ZM9.09908 26.8727C8.30786 26.8727 7.64118 27.1437 7.09904 27.6859C6.55691 28.228 6.28584 28.8947 6.28584 29.6859C6.28584 30.4771 6.55691 31.1438 7.09904 31.6859C7.64118 32.2281 8.30786 32.4991 9.09908 32.4991C9.8903 32.4991 10.557 32.2281 11.0991 31.6859C11.6413 31.1438 11.9123 30.4771 11.9123 29.6859C11.9123 28.8947 11.6413 28.228 11.0991 27.6859C10.557 27.1437 9.8903 26.8727 9.09908 26.8727ZM9.09908 31.1804C8.71812 31.1804 8.38112 31.0339 8.08807 30.7409C7.79502 30.4478 7.6485 30.0962 7.6485 29.6859C7.6485 29.3049 7.79502 28.9679 8.08807 28.6749C8.38112 28.3819 8.71812 28.2353 9.09908 28.2353C9.50934 28.2353 9.861 28.3819 10.154 28.6749C10.4471 28.9679 10.5936 29.3049 10.5936 29.6859C10.5936 30.0962 10.4471 30.4478 10.154 30.7409C9.861 31.0339 9.50934 31.1804 9.09908 31.1804ZM9.09908 23.4001C7.37011 23.4001 5.89023 24.0155 4.65943 25.2463C3.42864 26.4771 2.81324 27.9569 2.81324 29.6859C2.81324 31.4442 3.42864 32.9387 4.65943 34.1695C5.89023 35.4003 7.37011 36.0157 9.09908 36.0157C10.8574 36.0157 12.3519 35.4003 13.5827 34.1695C14.8135 32.9387 15.4289 31.4442 15.4289 29.6859C15.4289 27.9569 14.8135 26.4771 13.5827 25.2463C12.3519 24.0155 10.8574 23.4001 9.09908 23.4001ZM9.09908 34.653C7.75107 34.653 6.59354 34.1622 5.62648 33.1805C4.65943 32.1988 4.17591 31.0339 4.17591 29.6859C4.17591 28.3379 4.65943 27.1804 5.62648 26.2133C6.59354 25.2463 7.75107 24.7627 9.09908 24.7627C10.4471 24.7627 11.6119 25.2463 12.5937 26.2133C13.5754 27.1804 14.0662 28.3379 14.0662 29.6859C14.0662 31.0339 13.5754 32.1988 12.5937 33.1805C11.6119 34.1622 10.4471 34.653 9.09908 34.653ZM22.3741 40.4114C22.3448 40.0597 22.2642 39.7227 22.1323 39.4004C22.0004 39.078 21.8319 38.8143 21.6268 38.6092L22.1543 38.0377L21.2751 37.1146L20.7037 37.6861C20.4107 37.5102 20.1249 37.3491 19.8465 37.2025C19.5681 37.056 19.2531 36.9534 18.9015 36.8948V36.1036H17.5388V36.8948C17.2165 36.9534 16.9088 37.0414 16.6157 37.1586C16.3227 37.2758 16.0296 37.4516 15.7366 37.6861L15.2091 37.1146L14.286 38.0377L14.8574 38.6092C14.6816 38.8729 14.5204 39.1513 14.3739 39.4443C14.2274 39.7374 14.1248 40.0597 14.0662 40.4114H13.275V41.7301H14.0662C14.1248 42.0818 14.2127 42.3968 14.33 42.6752C14.4472 42.9536 14.579 43.21 14.7256 43.4444L14.1981 43.9719L15.0772 44.895L15.6487 44.3236C15.9124 44.4994 16.1908 44.6606 16.4838 44.8071C16.7769 44.9536 17.0992 45.0562 17.4509 45.1148V45.906H18.8136V45.1148C19.1359 45.0562 19.4436 44.9683 19.7367 44.851C20.0297 44.7338 20.3081 44.558 20.5718 44.3236L21.1433 44.895L22.0664 43.9719L21.4949 43.4444C21.6708 43.21 21.8246 42.9389 21.9565 42.6312C22.0883 42.3235 22.1543 42.0231 22.1543 41.7301H22.9455V40.4114H22.3741ZM18.2421 43.7521C17.4509 43.7521 16.7842 43.481 16.2421 42.9389C15.6999 42.3968 15.4289 41.7301 15.4289 40.9389C15.4289 40.1477 15.6999 39.481 16.2421 38.9388C16.7842 38.3967 17.4509 38.1256 18.2421 38.1256C19.0333 38.1256 19.7 38.3967 20.2422 38.9388C20.7843 39.481 21.0554 40.1477 21.0554 40.9389C21.114 41.7301 20.8576 42.3968 20.2861 42.9389C19.7147 43.481 19.0333 43.7521 18.2421 43.7521ZM18.2421 38.8289C17.6853 38.8289 17.2091 39.0268 16.8135 39.4224C16.4179 39.818 16.2201 40.2942 16.2201 40.851C16.2201 41.4077 16.4179 41.8839 16.8135 42.2796C17.2091 42.6752 17.6853 42.873 18.2421 42.873C18.7989 42.873 19.2751 42.6752 19.6707 42.2796C20.0663 41.8839 20.2641 41.4077 20.2641 40.851C20.3227 40.3528 20.1396 39.8912 19.7147 39.4663C19.2898 39.0414 18.7989 38.8289 18.2421 38.8289ZM18.2421 41.6422C18.0077 41.6422 17.8172 41.5616 17.6707 41.4004C17.5242 41.2392 17.4509 41.0561 17.4509 40.851C17.4509 40.6165 17.5242 40.426 17.6707 40.2795C17.8172 40.133 18.0077 40.0597 18.2421 40.0597C18.4472 40.0597 18.6304 40.133 18.7916 40.2795C18.9528 40.426 19.0333 40.6165 19.0333 40.851C19.0333 41.1147 18.9528 41.3125 18.7916 41.4444C18.6304 41.5763 18.4472 41.6422 18.2421 41.6422ZM22.3741 33.2904C22.2862 32.968 22.125 32.6896 21.8905 32.4552C21.6561 32.2208 21.3777 32.0596 21.0554 31.9717V31.0486H19.6927V31.9717C19.3996 32.0596 19.1286 32.2208 18.8795 32.4552C18.6304 32.6896 18.4472 32.968 18.33 33.2904H17.5388V34.653H18.33C18.4472 34.9461 18.6157 35.1952 18.8355 35.4003C19.0553 35.6054 19.2971 35.7666 19.5608 35.8838V36.8069H20.9235V35.8838C21.2165 35.7666 21.4803 35.6054 21.7147 35.4003C21.9491 35.1952 22.0957 34.9461 22.1543 34.653H22.9455V33.2904H22.3741ZM20.352 34.653C20.1469 34.653 19.9638 34.5798 19.8026 34.4333C19.6414 34.2867 19.5608 34.0963 19.5608 33.8618C19.5608 33.6274 19.6414 33.4369 19.8026 33.2904C19.9638 33.1439 20.1469 33.0706 20.352 33.0706C20.5865 33.0706 20.777 33.1439 20.9235 33.2904C21.07 33.4369 21.1433 33.6274 21.1433 33.8618C21.1433 34.0963 21.07 34.2867 20.9235 34.4333C20.777 34.5798 20.5865 34.653 20.352 34.653ZM40.5283 9.55365L39.1656 9.77343C39.2242 9.94926 39.2608 10.1251 39.2755 10.3009C39.2901 10.4767 39.3268 10.6819 39.3854 10.9163L40.7481 10.7844C40.6894 10.5793 40.6382 10.3668 40.5942 10.1471C40.5502 9.92728 40.5283 9.72947 40.5283 9.55365ZM37.2315 3.92716L36.4403 5.07004C36.4403 5.07004 36.704 5.32645 37.2315 5.83929C37.759 6.35212 38.2572 7.13602 38.726 8.19098L39.9568 7.75141C39.4586 6.46201 38.8945 5.51694 38.2645 4.91619C37.6344 4.31545 37.2901 3.98577 37.2315 3.92716Z" fill="white"/>
</g>
<defs>
<clipPath id="clip0_2593_1526">
<rect width="44.88" height="45.6" fill="white" transform="matrix(1 0 0 -1 0 46.2)"/>
</clipPath>
</defs>
</svg>
